<svg xmlns="http://www.w3.org/2000/svg" viewBox="0 0 128 128" role="img" aria-labelledby="title">
  <title id="title">Sync Expense icon</title>
  <rect width="128" height="128" rx="22" fill="#19324d"/>
  <path d="M26 36c0-5.5 4.5-10 10-10h56c5.5 0 10 4.5 10 10v56c0 5.5-4.5 10-10 10H36c-5.5 0-10-4.5-10-10V36Z" fill="#f4f6f2"/>
  <path d="M41 50h46M41 66h46M41 82h24" stroke="#19324d" stroke-width="8" stroke-linecap="round"/>
  <path d="M76 78c2.4 7.8 9.7 13.5 18.3 13.5h2.2l-7.3 7.3 5.6 5.6 17-17-17-17-5.6 5.6 7.3 7.3h-2.2c-5.1 0-9.5-3.4-10.9-8.1l-7.4 2.8Z" fill="#0f766e"/>
  <path d="M53 49.5c-2.5-7.6-9.7-13-18.1-13h-2.2l7.3-7.3-5.6-5.6-17 17 17 17 5.6-5.6-7.3-7.3h2.2c5 0 9.3 3.2 10.8 7.8l7.3-3Z" fill="#c2410c"/>
</svg>
